<svg width="100" height="100" viewBox="0 0 100 100" fill="none" xmlns="http://www.w3.org/2000/svg">
<path d="M45.4597 14.6184C47.2468 10.744 52.7532 10.744 54.5403 14.6184L60.6496 27.8632C61.9606 30.7055 64.6541 32.6625 67.7624 33.031L82.2469 34.7484C86.4839 35.2508 88.1855 40.4877 85.053 43.3845L74.3442 53.2877C72.0462 55.4129 71.0173 58.5793 71.6273 61.6494L74.47 75.9556C75.3015 80.1405 70.8467 83.3771 67.1236 81.2931L54.396 74.1687C51.6647 72.6398 48.3353 72.6398 45.604 74.1687L32.8764 81.2931C29.1533 83.3771 24.6985 80.1405 25.53 75.9556L28.3727 61.6494C28.9827 58.5793 27.9538 55.4129 25.6558 53.2877L14.947 43.3845C11.8145 40.4877 13.5161 35.2508 17.7531 34.7484L32.2376 33.031C35.3459 32.6625 38.0394 30.7055 39.3504 27.8632L45.4597 14.6184Z" fill="white" stroke="#0025C9" stroke-width="4"/>
<path d="M78.8813 35.3605L63.5318 33.1677L51.8849 52.5791L56.6436 54.6611L78.8812 35.3605L78.8813 35.3605Z" fill="white" stroke="#0025C9" stroke-width="4"/>
<path d="M19.6187 35.3605L34.9682 33.1677L46.6151 52.5791L41.8564 54.6611L19.6188 35.3605L19.6187 35.3605Z" fill="white" stroke="#0025C9" stroke-width="4"/>
<circle cx="50" cy="60" r="8" fill="#FFC266" stroke="#0025C9" stroke-width="4"/>
<path d="M77 9.99413L78.5145 14.2683C78.7159 14.8368 79.1632 15.2841 79.7317 15.4855L84.0059 17L79.7317 18.5145C79.1632 18.7159 78.7159 19.1632 78.5145 19.7317L77 24.0059L75.4855 19.7317C75.2841 19.1632 74.8368 18.7159 74.2683 18.5145L69.9941 17L74.2683 15.4855C74.8368 15.2841 75.2841 14.8368 75.4855 14.2683L77 9.99413Z" fill="#FFC266" stroke="#0025C9" stroke-width="2"/>
<path d="M10 54.9941L11.5145 59.2683C11.7159 59.8368 12.1632 60.2841 12.7317 60.4855L17.0059 62L12.7317 63.5145C12.1632 63.7159 11.7159 64.1632 11.5145 64.7317L10 69.0059L8.48551 64.7317C8.28407 64.1632 7.83683 63.7159 7.26833 63.5145L2.99413 62L7.26833 60.4855C7.83683 60.2841 8.28407 59.8368 8.48551 59.2683L10 54.9941Z" fill="#FFC266" stroke="#0025C9" stroke-width="2"/>
</svg>
